<svg viewBox="0 0 26 25" fill="none" xmlns="http://www.w3.org/2000/svg"><g clip-path="url(#a)" fill="#2D383F"><path d="M24.98 16.27c.77-2.44.14-5.2-.54-7.11a16.6 16.6 0 0 0-.7-1.7.89.89 0 0 0 .56-.83v-3.7c0-.48-.4-.88-.88-.88h-10.91a.44.44 0 0 0-.44.47c.15 2.66-.05 4.47-.61 5.74a.39.39 0 0 0-.03.04v.07c-.22.46-.51.89-.86 1.26l-.04.02v.03c-.52.5-1.13.9-1.78 1.2-1.14.5-2.31.94-3.5 1.3l-.23.08c-4.15 1.38-4.7 3.87-4.69 5.12v3.23c0 .15.09.3.22.37a12.9 12.9 0 0 0 3.26 1.42.44.44 0 0 0 .56-.45v-.1h.66v.44c0 .22.15.41.37.45.38.06.77.1 1.15.14a.44.44 0 0 0 .48-.44v-.56h.65v.63c0 .24.2.44.44.44.38 0 .75 0 1.15-.05.23-.02.4-.21.4-.45v-.57h.66v.39a.44.44 0 0 0 .52.44 15.5 15.5 0 0 0 2.4-.57l.07-.03c3.1-1.78 5.08-.32 5.16-.26.07.06.17.1.27.1h.55c.24 0 .44-.2.44-.45v-.75h.63v.74c0 .25.2.45.45.45h1.43c.24 0 .44-.2.44-.45v-.74h.66v.74c0 .25.2.45.44.45h1.1c.24 0 .44-.2.44-.45v-4.78c0-.21-.14-.4-.35-.44Zm-10.54-13.32h8.95v3.67h-8.95v-3.67Zm-5.57 8.85v.02c.36.3.7.63 1 .98a.84.84 0 0 0-.12.45.85.85 0 1 0 .93-.84c-.28-.38-.6-.74-.96-1.05.4-.23.77-.5 1.12-.8.43.41.83.85 1.2 1.3a.85.85 0 1 0 .79-.56h-.1c-.4-.5-.82-.95-1.28-1.38.21-.26.4-.54.56-.84.69.36 1.35.76 2 1.2a.86.86 0 1 0 .47-.76c-.67-.45-1.37-.86-2.1-1.23.49-1.29.7-3 .6-5.33h.58v3.68c0 .49.4.89.89.89h8.32c.11.23.3.64.52 1.17h-.18a4.88 4.88 0 0 0-2.88 8.8c-3.59.95-8.99 2.07-13.54 1.78.84-3.35-.16-5.42-.81-6.32 1.01-.33 2.01-.72 2.99-1.16Zm-3.88 1.41c.48.57 1.73 2.46.8 5.95-1.6-.13-3.14-.6-4.55-1.38l-.03-.3v-.04c-.03-.94.32-2.99 3.78-4.23Zm19.25 7.84v-.74c0-.25-.2-.44-.45-.44h-1.54c-.24 0-.44.2-.44.44v.74h-.55v-.74c0-.25-.2-.44-.44-.44h-1.53c-.25 0-.45.2-.45.44v.72c-.6-.37-2.8-1.47-5.94.28-.55.18-1.12.33-1.7.44v-.3c0-.25-.2-.45-.44-.45h-1.53c-.25 0-.44.2-.44.45v.6h-.23v-.62c0-.24-.2-.44-.44-.44h-1.54c-.25 0-.45.2-.45.44v.53l-.23-.03v-.5c0-.24-.2-.44-.44-.44h-1.54a.44.44 0 0 0-.44.39c-.8-.26-1.55-.6-2.27-1.02v-1.59c1.94 1.03 4.44 1.42 7.1 1.42 7.08 0 15.18-2.71 16.13-3.04v3.9h-.2Zm-.22-4.68c-.38.12-1.3.44-2.59.78a4 4 0 0 1 2.2-7.56v.01c.66 1.89 1.25 4.57.39 6.77Z"/><path d="M16.15 3.48a1.3 1.3 0 1 0 0 2.59 1.3 1.3 0 0 0 0-2.59Zm0 1.7a.4.4 0 1 1 0-.8.4.4 0 0 1 0 .8Z"/></g><defs><clipPath id="a"><path fill="#fff" transform="translate(.333)" d="M0 0h25v25h-25z"/></clipPath></defs></svg>