<svg viewBox="0 0 12 12" fill="none" xmlns="http://www.w3.org/2000/svg"><g clip-path="url(#a)"><path d="M11.2 6.75a.38.38 0 0 0-.32.07 4.09 4.09 0 0 1-6.75-3.13 3.82 3.82 0 0 1 .89-2.56.36.36 0 0 0-.06-.5.38.38 0 0 0-.32-.07 5.55 5.55 0 0 0 1.42 10.9 5.53 5.53 0 0 0 5.37-4.26.34.34 0 0 0-.23-.45Zm-2.14 2.93a4.75 4.75 0 0 1-6.35-.38 4.8 4.8 0 0 1 1.18-7.67c-.07.16-.14.31-.2.48a4.84 4.84 0 0 0 4.54 6.42 4.59 4.59 0 0 0 2.2-.52c-.33.65-.8 1.22-1.37 1.67Z" fill="#fff"/></g><defs><clipPath id="a"><path fill="#fff" d="M0 0h12v12h-12z"/></clipPath></defs></svg>