<svg viewBox="0 0 26 26" fill="none" xmlns="http://www.w3.org/2000/svg"><mask id="a" style="mask-type:luminance" maskUnits="userSpaceOnUse" x="0" y="0" width="26" height="26"><path d="M0 0h26v26h-26v-26Z" fill="#fff"/></mask><g mask="url(#a)"><path d="M22.84 23.69a2 2 0 0 1-1.99 1.12 22.24 22.24 0 0 1-19.66-19.74 2.01 2.01 0 0 1 1.12-2l3.25-1.65c1.26-.65 2.78.1 3.22 1.45.4 1.23.92 2.43 1.53 3.57.49.9.16 2.05-.77 2.48a2.13 2.13 0 0 0-.62 3.44l4.67 4.69a2.12 2.12 0 0 0 3.43-.62 1.9 1.9 0 0 1 2.61-.85c1.11.57 2.27 1.04 3.46 1.41 1.37.43 2.14 1.98 1.5 3.25l-1.75 3.45Z" stroke="#2D383F" stroke-linecap="round" stroke-linejoin="round"/></g></svg>