<svg viewBox="0 0 26 26" fill="none" xmlns="http://www.w3.org/2000/svg"><path d="M21.86 9.63c0-4.67-3.96-8.45-8.86-8.45-4.9 0-8.86 3.78-8.86 8.45v.5c0 1.87.6 3.7 1.75 5.21l7.1 9.47h.03l7.1-9.47a8.67 8.67 0 0 0 1.74-5.2v-.51Z" stroke="#2D383F" stroke-linecap="round" stroke-linejoin="round"/><path d="M11.27 6.25c1.1-.5 2.37-.5 3.46 0a3.8 3.8 0 0 1 2.16 2.58 3.67 3.67 0 0 1-.77 3.22c-.76.9-1.9 1.43-3.12 1.43a4.07 4.07 0 0 1-3.12-1.43 3.67 3.67 0 0 1-.77-3.22 3.85 3.85 0 0 1 2.16-2.58Z" stroke="#2D383F" stroke-linecap="round" stroke-linejoin="round"/></svg>